<svg width="510" height="120" viewBox="0 0 510 120" fill="none" xmlns="http://www.w3.org/2000/svg">
  <path
    d="M342.857 98.5742V111.431H420.001V98.5742H342.857zM408.122 48.4095V64.4463C408.122 75.8223 399.983 85.065 390.01 85.065 380.037 85.065 371.898 75.8223 371.898 64.4463V47.1453H360.01V64.4463C360.01 83.248 373.493 98.5741 390.01 98.5741 406.608 98.5741 420.01 83.248 420.01 64.4463V48.4095H408.122z"
    fill="#06D6A0" />
  <path
    d="M249.11 102.857C242.988 102.857 239.697 101.025 238.166 96.8033L237.86 95.8474L237.095 96.4846C232.273 100.786 227.299 102.778 221.329 102.778C210.003 102.778 203.957 95.5286 203.957 81.827V65.5762C203.957 64.461 203.574 63.4253 202.809 62.6289C202.044 61.8321 201.049 61.4339 199.977 61.4339H187.273V101.424H173.039V61.4339H167.146V50.6796H173.039V42.5542C173.039 26.1442 180.462 17.1426 194.008 17.1426C198.6 17.1426 202.886 18.1781 206.023 19.9308L204.646 31.4815C202.886 30.5255 200.743 29.9681 198.37 29.9681C190.794 29.9681 187.273 34.5884 187.273 44.5459V50.6796H210.462C214.671 50.6796 218.115 54.2645 218.115 58.6458V78.1627C218.115 86.1288 220.87 89.7931 226.763 89.7931C230.207 89.7931 233.498 88.5184 236.636 86.049L236.865 85.8101V50.6796H251.024V86.2083C251.024 88.2794 251.712 89.9524 253.013 90.9881C254.161 91.9437 255.769 92.4217 257.682 92.4217C258.753 92.4217 259.825 92.2625 260.972 92.0235L261.432 100.069C259.366 101.185 253.779 102.857 249.11 102.857Z"
    fill="#181818" />
  <path
    d="M270.079 102.86C263.331 102.86 257.152 101.245 257.152 89.4801V21.4307H272.356V86.7889C272.356 91.5563 273.819 93.2478 277.64 93.2478C279.917 93.2478 281.38 92.4791 282.274 91.9407C282.356 91.864 282.437 91.864 282.6 91.787L287.152 97.5538C286.99 97.6308 286.827 97.7845 286.583 97.9385C283.982 99.63 279.266 102.86 270.079 102.86Z"
    fill="#181818" />
  <path
    d="M304 98.5741C288.109 98.5741 278.574 88.9458 278.574 72.8216 278.574 57.0032 288.109 47.1453 303.546 47.1453 314.82 47.1453 321.554 52.4945 323.07 62.5817L310.961 66.0206C310.053 60.6714 307.178 57.7675 302.638 57.7675 296.66 57.7675 292.952 62.9637 292.952 71.2933 292.952 81.4567 298.173 87.1117 307.556 87.1117 316.636 87.1117 321.554 83.2908 325.187 80.4634 325.34 80.3869 325.414 80.3104 325.567 80.1577L325.717 90.1683 325.414 90.4741C322.162 93.6834 317.241 98.5741 304 98.5741zM325.725 98.4959V48.5565H339.753L340.306 54.8285 341.329 53.8092C345.745 49.4188 350.711 47.1453 356.07 47.1453 357.489 47.1453 358.748 47.3023 360.01 47.6157V62.9817L359.854 63.0602C357.802 61.8057 354.099 61.2571 351.341 61.2571 347.557 61.2571 343.617 62.825 340.619 65.5689L340.383 65.8041V98.5741H325.725V98.4959zM500.179 98.5743C493.659 98.5743 487.612 96.9698 487.612 85.2778V70.6057C487.612 63.2697 484.709 59.5253 478.974 59.5253 475.596 59.5253 472.062 60.9009 468.608 63.4989L468.292 63.7282 468.372 64.1102C468.451 65.0272 468.451 65.8678 468.451 66.7848V97.1991H453.844V70.3765C453.844 63.1169 450.937 59.5253 444.97 59.5253 441.592 59.5253 438.137 60.7478 434.839 63.2697L434.603 63.4989V97.1991H419.995V48.5211H433.896L434.447 53.5648 435.466 52.8005C440.258 49.0561 445.362 47.1455 450.781 47.1455 458.085 47.1455 463.188 49.6674 465.939 54.6346L466.331 55.3986 466.958 54.7873C470.728 51.2722 476.854 47.1455 484.629 47.1455 496.174 47.1455 502.3 54.0233 502.3 67.0141V82.6032C502.3 87.3411 503.634 89.0222 507.483 89.0222 508.031 89.0222 508.738 88.946 509.368 88.8694L509.996 96.664C507.875 97.5811 504.968 98.5743 500.179 98.5743z"
    fill="#181818" />
  <path
    d="M81.4216 64.286C100.33 64.286 115.707 48.0789 115.707 28.1494V0H47.1357V28.1494C47.1357 48.0789 62.5135 64.286 81.4216 64.286zM137.074 30.0029C135.37 58.3309 115.553 81.4016 90.0078 85.7175H137.151V30.0029H137.074zM0 111.429C0 116.16 4.31464 120 9.63087 120H127.513C132.829 120 137.143 116.16 137.143 111.429H0z"
    fill="#06D6A0" />
  <path
    d="M72.8575 85.7147C46.2307 81.2917 25.8551 56.889 25.8551 27.6055V0H9.64745C4.32207 0 0 4.27049 0 9.53232V85.7147H72.8575Z"
    fill="#06D6A0" />
</svg>